<svg width="24" height="24" viewBox="0 0 24 24" fill="none" xmlns="http://www.w3.org/2000/svg">
<circle cx="12" cy="12" r="12" fill="url(#paint0_linear_1725_10605)"/>
<path fill-rule="evenodd" clip-rule="evenodd" d="M18.1587 8.05283C17.103 10.482 15.3761 12.5583 13.1815 14.0373C10.9869 15.5163 8.41594 16.3363 5.77155 16.4008C5.22427 15.5862 4.84255 14.6715 4.64819 13.7092C4.45383 12.7468 4.45063 11.7555 4.63877 10.7919C4.82691 9.82827 5.20271 8.9112 5.74472 8.09305C6.28673 7.27489 6.98432 6.57167 7.79767 6.02354C8.61103 5.4754 9.52421 5.09309 10.4851 4.89842C11.446 4.70375 12.4357 4.70055 13.3978 4.88898C14.3599 5.07742 15.2756 5.45381 16.0924 5.99667C16.9093 6.53952 17.6114 7.2382 18.1587 8.05283ZM19.3974 12.1691C19.3974 13.7303 18.9098 15.2523 18.003 16.522C17.0962 17.7917 15.8156 18.7456 14.3405 19.25C14.8097 15.4628 16.2878 11.8718 18.6197 8.85373C19.1316 9.88372 19.3978 11.0186 19.3974 12.1691ZM18.6581 7.0838V7.99455C18.6581 8.00387 18.6605 8.01304 18.665 8.02113C18.6696 8.02922 18.6762 8.03594 18.6841 8.04061C18.692 8.04529 18.701 8.04776 18.7102 8.04776C18.7194 8.04777 18.7284 8.04532 18.7363 8.04066L19.5418 7.57952C19.5497 7.57476 19.5562 7.56802 19.5608 7.55994C19.5654 7.55186 19.5678 7.54272 19.5679 7.53341V6.62266C19.5679 6.61333 19.5655 6.60416 19.561 6.59607C19.5564 6.58799 19.5498 6.58126 19.5419 6.57659C19.534 6.57191 19.525 6.56944 19.5158 6.56944C19.5067 6.56943 19.4977 6.57188 19.4897 6.57654L18.6853 7.03768C18.6772 7.0422 18.6703 7.04886 18.6656 7.05697C18.6608 7.06508 18.6582 7.07434 18.6581 7.0838Z" fill="white"/>
<defs>
<linearGradient id="paint0_linear_1725_10605" x1="-9.58321" y1="7.26301" x2="24.432" y2="22.97" gradientUnits="userSpaceOnUse">
<stop stop-color="#C040FC"/>
<stop offset="1" stop-color="#4B3CFF"/>
</linearGradient>
</defs>
</svg>
