<svg xmlns="http://www.w3.org/2000/svg" viewBox="0 0 629 145"><g clip-path="url(#clip0_logo)"><path fill-rule="evenodd" clip-rule="evenodd" d="M146.09 97.56L177.09 26.91C177.6 25.7446 178.44 24.7538 179.506 24.0591C180.572 23.3645 181.818 22.9964 183.09 23H202.39L234.91 97.58C234.981 97.7341 235.012 97.9039 235 98.0732C234.988 98.2426 234.932 98.4061 234.839 98.5481C234.746 98.6902 234.618 98.8063 234.468 98.8853C234.318 98.9644 234.15 99.0038 233.98 99H219.33C219.135 99.0007 218.944 98.9442 218.78 98.8376C218.617 98.731 218.488 98.5789 218.41 98.4L211.91 84.38C211.83 84.203 211.701 84.053 211.538 83.9482C211.374 83.8435 211.184 83.7885 210.99 83.79H170.17C169.976 83.7885 169.786 83.8435 169.622 83.9482C169.459 84.053 169.33 84.203 169.25 84.38L162.75 98.37C162.672 98.5489 162.543 98.701 162.38 98.8076C162.216 98.9142 162.025 98.9707 161.83 98.97H147.02C146.851 98.973 146.685 98.9334 146.536 98.8549C146.387 98.7764 146.26 98.6614 146.167 98.5208C146.074 98.3801 146.019 98.2183 146.005 98.0503C145.992 97.8823 146.021 97.7137 146.09 97.56ZM204.17 70.31C204.337 70.3123 204.502 70.2726 204.65 70.1946C204.798 70.1165 204.924 70.0027 205.016 69.8634C205.109 69.7242 205.165 69.5639 205.18 69.3974C205.194 69.2308 205.167 69.0632 205.1 68.91L191.56 36.56C191.484 36.3758 191.355 36.2184 191.19 36.108C191.024 35.9975 190.829 35.939 190.63 35.94C190.431 35.939 190.236 35.9975 190.07 36.108C189.905 36.2184 189.776 36.3758 189.7 36.56L176.16 68.91C176.097 69.0589 176.071 69.2209 176.084 69.3822C176.097 69.5434 176.149 69.6991 176.236 69.8357C176.322 69.9724 176.44 70.0861 176.581 70.1669C176.721 70.2478 176.878 70.2935 177.04 70.3L177.09 70.31H204.17ZM242.002 122C241.736 122 241.481 121.895 241.294 121.707C241.106 121.519 241 121.264 241 120.999V51.5069C241.021 50.0269 241.629 48.6159 242.691 47.5835C243.752 46.5511 245.181 45.9817 246.662 46.0004H276.055C285.583 46.0004 293.019 48.2798 298.364 52.8384C303.708 57.397 306 63.8045 306 72.4412C306 81.1513 303.708 87.9759 298.364 92.5346C293.019 97.0932 285.583 98.972 276.055 98.972H257.014V120.999C257.014 121.264 256.909 121.519 256.721 121.707C256.533 121.895 256.278 122 256.012 122H242.002ZM276.055 57.9143H257.014V87.4487H276.055C280.685 87.4487 284.226 86.2239 286.678 83.7744C289.13 81.3249 290.356 77.6106 290.356 72.6314C290.356 67.7257 289.13 64.0548 286.678 61.6186C284.226 59.1824 280.685 57.9477 276.055 57.9143ZM320.812 92.1618C326.02 96.7206 333.277 99 342.582 99H354.418C363.723 99 370.98 96.7206 376.188 92.1618C381.396 87.603 384 80.9006 384 72.0547C384 63.1358 381.396 56.397 376.188 51.8382C370.98 47.2794 363.723 45 354.418 45H342.582C333.277 44.9934 326.02 47.2728 320.812 51.8382C315.604 56.4037 313 63.1425 313 72.0547C313 80.9006 315.604 87.603 320.812 92.1618ZM354.418 87.1723H342.582V87.1524C338.071 87.1723 334.618 85.9464 332.225 83.4749C329.831 81.0033 328.634 77.1966 328.634 72.0547C328.634 66.8332 329.831 62.9901 332.225 60.5251C334.618 58.0602 338.074 56.8277 342.592 56.8277H354.428C358.933 56.8211 362.385 58.0536 364.785 60.5251C367.185 62.9967 368.386 66.8399 368.386 72.0547C368.372 77.2032 367.169 81.0099 364.775 83.4749C362.382 85.9398 358.929 87.1723 354.418 87.1723ZM479.582 99C470.277 99 463.02 96.7206 457.812 92.1618C452.604 87.603 450 80.9006 450 72.0547C450 63.1425 452.604 56.4037 457.812 51.8382C463.02 47.2728 470.277 44.9934 479.582 45H491.418C500.723 45 507.98 47.2794 513.188 51.8382C518.396 56.397 521 63.1358 521 72.0547C521 80.9006 518.396 87.603 513.188 92.1618C507.98 96.7206 500.723 99 491.418 99H479.582ZM479.582 87.1723H491.418C495.929 87.1723 499.382 85.9398 501.775 83.4749C504.169 81.0099 505.372 77.2032 505.386 72.0547C505.386 66.8399 504.185 62.9967 501.785 60.5251C499.385 58.0536 495.933 56.8211 491.428 56.8277H479.592C475.074 56.8277 471.618 58.0602 469.225 60.5251C466.831 62.9901 465.634 66.8332 465.634 72.0547C465.634 77.1966 466.831 81.0033 469.225 83.4749C471.618 85.9464 475.071 87.1723 479.582 87.1524V87.1723ZM424.293 98.7086C424.48 98.8952 424.735 99 425 99H439C439.265 99 439.52 98.8952 439.707 98.7086C439.895 98.5221 440 98.2691 440 98.0053V23.0052H430C428.475 22.9405 426.987 23.4802 425.862 24.506C424.737 25.5317 424.068 26.9596 424 28.476V98.0053C424 98.2691 424.105 98.5221 424.293 98.7086ZM395 99C394.735 99 394.48 98.8952 394.293 98.7086C394.105 98.5221 394 98.2691 394 98.0053V28.476C394.067 26.9596 394.737 25.5317 395.862 24.506C396.987 23.4802 398.475 22.9405 400 23.0052H410V98.0053C410 98.2691 409.895 98.5221 409.707 98.7086C409.52 98.8952 409.265 99 409 99H395ZM548.818 62.7157L527 99H544.063L562.515 70.8717C562.911 70.2714 563.427 69.7831 564.022 69.4463C564.618 69.1094 565.276 68.9333 565.943 68.9322H567.021C567.688 68.9333 568.346 69.1094 568.942 69.4463C569.537 69.7831 570.054 70.2714 570.45 70.8717L588.902 99H606L584.2 62.7157C583.647 61.894 583.348 60.8939 583.348 59.8661C583.348 58.8383 583.647 57.8383 584.2 57.0165L606 23H589.017L570.476 51.2277C570.086 51.8384 569.572 52.3371 568.976 52.6829C568.38 53.0287 567.719 53.2117 567.048 53.217H565.97C565.299 53.2117 564.638 53.0287 564.042 52.6829C563.446 52.3371 562.932 51.8384 562.542 51.2277L544 23H527L548.818 57.0165C549.368 57.8396 549.665 58.8391 549.665 59.8661C549.665 60.8931 549.368 61.8927 548.818 62.7157Z" fill="#5849FF"></path></g><path fill-rule="evenodd" clip-rule="evenodd" d="M113.769 44.9493C106.753 61.0925 95.2769 74.8912 80.6926 84.72C66.1083 94.5488 49.0233 99.9983 31.4501 100.427C27.8131 95.013 25.2764 88.9348 23.9848 82.5392C22.6932 76.1436 22.6719 69.5559 23.9222 63.1521C25.1725 56.7482 27.6699 50.6538 31.2718 45.2166C34.8737 39.7795 39.5095 35.1062 44.9146 31.4635C50.3198 27.8208 56.3883 25.28 62.7738 23.9864C69.1593 22.6927 75.7367 22.6714 82.1304 23.9236C88.5241 25.1759 94.6089 27.6773 100.037 31.2849C105.466 34.8925 110.132 39.5357 113.769 44.9493ZM117 44.64V38.4793C117.001 38.4154 117.017 38.3527 117.049 38.2979C117.08 38.243 117.126 38.198 117.179 38.1674L122.484 35.0481C122.537 35.0165 122.596 34.9999 122.657 35C122.717 35.0001 122.776 35.0167 122.829 35.0484C122.881 35.08 122.924 35.1255 122.954 35.1802C122.984 35.2349 123 35.2969 123 35.36V41.5207C122.999 41.5837 122.983 41.6455 122.953 41.7002C122.923 41.7548 122.88 41.8004 122.828 41.8326L117.516 44.9519C117.463 44.9835 117.404 45.0001 117.343 45C117.283 44.9999 117.224 44.9833 117.171 44.9516C117.119 44.92 117.076 44.8745 117.046 44.8198C117.016 44.7651 117 44.7031 117 44.64ZM112.733 101.232C118.759 92.7939 122 82.6792 122 72.3046C122.002 64.6586 120.233 57.1165 116.832 50.2716C101.335 70.3287 91.512 94.1929 88.394 119.361C98.1967 116.009 106.707 109.67 112.733 101.232Z" fill="url(#paint0_linear)"></path><defs><linearGradient id="paint0_linear" x1="-16.93" y1="52.1614" x2="122.909" y2="119.172" gradientUnits="userSpaceOnUse"><stop stop-color="#C040FC"></stop><stop offset="1" stop-color="#4B3CFF"></stop></linearGradient><clipPath id="clip0_logo"><rect width="460" height="99" fill="white" transform="translate(146 23)"></rect></clipPath></defs></svg>